/vscmnt/brussel_pixiu_data/_data_brussel/112/vsc11236/PredSimResults/SUBJ04opt3D/weighted/trackIG/worker_01.mot
version=1
nRows=5
nColumns=50
inDegrees=yes
endheader
                time	         pelvis_tilt	         pelvis_list	     pelvis_rotation	           pelvis_tx	           pelvis_ty	           pelvis_tz	       hip_flexion_r	     hip_adduction_r	      hip_rotation_r	        knee_angle_r	       ankle_angle_r	         mtp_angle_r	       hip_flexion_l	     hip_adduction_l	      hip_rotation_l	        knee_angle_l	       ankle_angle_l	         mtp_angle_l	    lumbar_extension	      lumbar_bending	     lumbar_rotation	 ercspn_r/activation	 intobl_r/activation	 extobl_r/activation	    abd_r/activation	    add_r/activation	hamstrings_r/activation	bifemsh_r/activation	glut_max_r/activation	iliopsoas_r/activation	rect_fem_r/activation	  vasti_r/activation	gastroc_r/activation	 soleus_r/activation	tib_ant_r/activation	 ercspn_l/activation	 intobl_l/activation	 extobl_l/activation	    abd_l/activation	    add_l/activation	hamstrings_l/activation	bifemsh_l/activation	glut_max_l/activation	iliopsoas_l/activation	rect_fem_l/activation	  vasti_l/activation	gastroc_l/activation	 soleus_l/activation	tib_ant_l/activation	
          0.66797271	         -1.69517811	         -0.23393395	         -8.87789116	          0.60117544	          0.88351562	          0.01111630	        -12.39852943	         -0.62452315	         -7.91109542	         -7.63642878	         13.26687542	         19.73960761	         28.63757619	         -3.18973334	        -10.85618500	        -11.24470308	          3.97750853	          0.23144791	        -13.83409756	          3.69082233	          7.74234190	          0.01841437	          0.01000002	          0.01000003	          0.06708198	          0.01000039	          0.02898445	          0.21058812	          0.01812435	          0.01971562	          0.01000173	          0.01000010	          0.24785348	          0.25037932	          0.01000004	          0.04235434	          0.22832536	          0.02214433	          0.01000008	          0.27500571	          0.06647976	          0.01000417	          0.01598973	          0.17457706	          0.03888856	          0.04678923	          0.01000006	          0.01000002	          0.33101044	
          0.68133216	         -1.80092500	         -0.22479979	         -8.66137752	          0.61652282	          0.88125800	          0.01072402	        -13.06709195	         -0.74390483	         -8.58554948	         -8.15119680	         13.01017069	         21.16267804	         28.49558686	         -3.03723207	        -11.07357329	        -12.44309471	          3.78646852	          0.22467830	        -13.33193454	          3.09292305	          7.82064679	          0.02442635	          0.01000004	          0.01000007	          0.05486573	          0.01000091	          0.02372592	          0.17223817	          0.01482393	          0.01612534	          0.01000020	          0.01000028	          0.22861967	          0.25006171	          0.01000001	          0.03464127	          0.22671603	          0.01811165	          0.01000001	          0.27827694	          0.06890406	          0.01613485	          0.02463352	          0.14278493	          0.03180660	          0.03826862	          0.01804286	          0.01930663	          0.33358943	
          0.69469162	         -1.89129175	         -0.15620821	         -8.40210241	          0.63226264	          0.87914997	          0.01027821	        -13.68456751	         -0.93387719	         -9.29117935	         -8.82788485	         12.67951533	         22.62279907	         28.24402678	         -2.86904934	        -11.18355794	        -13.59173555	          3.46244447	          0.22243652	        -12.79424550	          2.40388119	          7.87288220	          0.02624029	          0.01000002	          0.01000011	          0.04487416	          0.01000041	          0.01940664	          0.14087207	          0.01212438	          0.01318912	          0.01000038	          0.01000016	          0.18698595	          0.23949366	          0.01000003	          0.02833291	          0.20965998	          0.01481336	          0.02562072	          0.22760054	          0.07026948	          0.01321896	          0.02939718	          0.11678244	          0.02601433	          0.06110909	          0.01475712	          0.01579072	          0.36214958	
          0.70805107	         -1.96715784	         -0.04278276	         -8.08886619	          0.64819810	          0.87737808	          0.00972161	        -14.18426429	         -1.18730069	        -10.03510046	         -9.76265082	         12.23683397	         24.11784467	         27.95309508	         -2.66954914	        -11.39005823	        -14.65671588	          3.02368332	          0.20364234	        -12.25141139	          1.64709131	          7.88973199	          0.03392554	          0.01000001	          0.01000006	          0.03670216	          0.01000035	          0.01588083	          0.11521799	          0.01000019	          0.01078758	          0.01000026	          0.01000021	          0.15293405	          0.22574594	          0.01000001	          0.02363804	          0.17147892	          0.01211573	          0.03904972	          0.20729810	          0.07244527	          0.01081387	          0.02404397	          0.09551526	          0.02127689	          0.13317212	          0.01206978	          0.01291510	          0.39017319	
          0.72141053	         -2.02892436	          0.11356810	         -7.73167963	          0.66420797	          0.87612973	          0.00904212	        -14.50335404	         -1.51742970	        -10.80665387	        -11.04404784	         11.62800095	         25.66546052	         27.60110018	         -2.43501817	        -11.71127240	        -15.65223511	          2.72122831	          0.18097835	        -11.72063862	          0.83146074	          7.87133358	          0.05323906	          0.01000002	          0.01000005	          0.03001836	          0.01000038	          0.02034259	          0.09423575	          0.01000035	          0.01000056	          0.01000027	          0.01000023	          0.12508332	          0.19466467	          0.01000001	          0.03119916	          0.14025099	          0.01000007	          0.07186763	          0.18115990	          0.07123216	          0.01000678	          0.01967193	          0.07812103	          0.01740219	          0.19166712	          0.01000022	          0.01056319	          0.40015942	
